<?xml version="1.0" standalone="no"?>
<!DOCTYPE svg PUBLIC "-//W3C//DTD SVG 20010904//EN"
 "http://www.w3.org/TR/2001/REC-SVG-20010904/DTD/svg10.dtd">
<svg version="1.0" xmlns="http://www.w3.org/2000/svg"
 width="1080.000000pt" height="1080.000000pt" viewBox="0 0 1080.000000 1080.000000"
 preserveAspectRatio="xMidYMid meet">
<metadata>
Created by potrace 1.14, written by Peter Selinger 2001-2017
</metadata>
<g transform="translate(0.000000,1080.000000) scale(0.100000,-0.100000)"
fill="#000000" stroke="none">
<path d="M5109 10796 c-2 -2 -53 -6 -114 -10 -194 -11 -446 -46 -714 -101
-329 -67 -689 -183 -1060 -341 -65 -28 -343 -166 -436 -217 -306 -167 -634
-398 -935 -658 -139 -120 -409 -390 -515 -514 -33 -38 -66 -76 -73 -84 -58
-61 -252 -321 -349 -466 -116 -175 -141 -215 -225 -365 -390 -698 -615 -1446
-677 -2250 -11 -142 -11 -615 0 -770 78 -1114 500 -2174 1214 -3045 344 -420
740 -777 1205 -1085 753 -501 1650 -807 2570 -879 112 -8 785 -7 845 3 17 2
62 7 100 11 115 10 340 44 505 76 1008 196 1962 697 2704 1419 132 129 323
334 411 441 356 433 651 932 855 1444 111 279 229 675 274 920 27 145 56 321
62 370 3 33 8 68 10 77 26 147 39 767 21 1023 -64 919 -372 1817 -890 2595
-81 122 -270 378 -331 448 -217 251 -408 449 -581 600 -60 53 -112 99 -115
102 -15 17 -213 170 -321 247 -524 376 -1080 643 -1707 818 -235 66 -616 142
-792 159 -96 9 -174 17 -205 22 -36 6 -730 16 -736 10z"/>
</g>
</svg>
